# xmcd
#
# Track frame offsets:
#	150
#	18078
#	37509
#	65127
#	91721
#	113090
#	136833
#	155656
#	174816
#	196714
#
# Disc length: 3007 seconds
#
# Revision: 0
# Processed by: cddbd v1.5.2PL0 Copyright (c) Steve Scherf et al.
# Submitted via: EasyCDDAExtractor 16.0.6.1
#
DISCID=690bbd0a
DTITLE=Χορ. κ μαντολινάτα ''Παναγής Μπαρμπάτης'' - Απόψε την κιθάρα μου 1
DYEAR=2013
DGENRE=Επτανησιακή
TTITLE0=Λαλούν τ΄αηδόνια [Διον. Λαυράγκας-Γεώργιος Αθάνας]
TTITLE1=Κάτω απ' το μισόγυρτο παράθυρο [σερενάτα, Τίτος Ξηρέλλης]
TTITLE2=Η ξανθούλα [Σπ. Ξύνδας-Διον. Σολωμός]
TTITLE3=Η ψαρόβαρκα [Διον. Λαυράγκας-Ιωάννης Πολέμης]
TTITLE4=Το όνειρο [εαρινή νυχτωδία]
TTITLE5=Όμορφη και παράξενη πατρίδα [Δημ. Λάγιος-Οδ. Ελύτης]
TTITLE6=Σερενάτα ντ' αμόρε [σερενάτα, νυχτωδία]
TTITLE7=Ο νυχτωμπάτης-Οι νεράϊδες [Ναπ. Λαμπελέτ-Ιωάννης Πολέμης]
TTITLE8=Ενθυμού [επτανισιακή νυχτωδία]
TTITLE9=Η αγράμπελη [Ευάγγ. Μακρής-Αριστ. Βαλαωρίτης]
EXTD=
EXTT0=
EXTT1=
EXTT2=
EXTT3=
EXTT4=
EXTT5=
EXTT6=
EXTT7=
EXTT8=
EXTT9=
PLAYORDER=
